<?xml version="1.0" standalone="no"?>
<!DOCTYPE svg PUBLIC "-//W3C//DTD SVG 20010904//EN"
 "http://www.w3.org/TR/2001/REC-SVG-20010904/DTD/svg10.dtd">
<svg version="1.0" xmlns="http://www.w3.org/2000/svg"
 width="923.000000pt" height="923.000000pt" viewBox="0 0 923.000000 923.000000"
 preserveAspectRatio="xMidYMid meet">
<metadata>
Created by potrace 1.11, written by Peter Selinger 2001-2013
</metadata>
<g transform="translate(0.000000,923.000000) scale(0.100000,-0.100000)"
fill="#000000" stroke="none">
<path d="M4660 9219 c-129 -20 -141 -23 -236 -49 -79 -23 -98 -29 -171 -61
-24 -11 -45 -19 -49 -19 -11 0 -185 -90 -261 -136 -216 -130 -406 -312 -539
-514 -72 -110 -70 -108 -115 -200 -56 -114 -120 -287 -134 -362 -2 -11 -7 -28
-10 -38 -8 -25 -14 -53 -30 -145 -32 -185 -40 -276 -40 -470 0 -187 8 -269 39
-431 27 -137 98 -346 167 -491 27 -56 49 -105 49 -108 0 -4 -9 -4 -20 0 -11 3
-32 8 -47 11 -16 3 -64 11 -108 19 -255 45 -485 52 -680 20 -200 -33 -401
-116 -566 -232 -108 -78 -117 -88 -89 -103 12 -6 34 -14 48 -16 97 -16 222
-67 306 -126 43 -30 124 -111 162 -162 177 -234 220 -538 115 -804 -24 -60
-22 -56 -101 -190 -33 -56 -60 -105 -60 -107 0 -8 -144 -232 -228 -355 -202
-293 -225 -331 -311 -505 -80 -163 -153 -365 -186 -515 -3 -11 -7 -30 -10 -42
-31 -140 -40 -248 -40 -463 0 -231 8 -308 56 -535 50 -238 143 -496 256 -710
43 -80 177 -290 214 -334 9 -12 45 -55 79 -96 232 -282 558 -539 890 -704 121
-60 303 -130 394 -153 59 -14 207 -43 246 -48 118 -14 144 -17 161 -20 101
-20 911 -28 1109 -12 216 18 225 19 375 38 127 15 146 19 210 35 303 76 644
240 939 452 176 127 379 313 516 473 98 114 102 118 173 218 299 416 496 920
552 1409 3 26 8 65 11 87 9 71 12 418 3 510 -15 171 -26 244 -50 365 -111 546
-324 1042 -707 1650 -96 152 -262 393 -360 520 -80 104 -243 311 -257 326 -5
6 -26 31 -46 55 -134 163 -244 291 -279 329 -8 9 -42 47 -75 85 -32 39 -66 77
-75 86 -8 9 -24 27 -36 40 -62 73 -178 205 -183 209 -3 3 -35 39 -71 80 -35
41 -67 77 -71 80 -20 16 -173 229 -220 305 -213 346 -287 709 -203 995 79 269
311 484 571 526 21 4 72 12 113 18 l75 12 -95 56 c-219 129 -470 219 -690 247
-86 10 -314 11 -380 0z"/>
</g>
</svg>
