<?xml version="1.0" encoding="UTF-8" standalone="no"?>
<svg
   xmlns:dc="http://purl.org/dc/elements/1.1/"
   xmlns:cc="http://creativecommons.org/ns#"
   xmlns:rdf="http://www.w3.org/1999/02/22-rdf-syntax-ns#"
   xmlns:svg="http://www.w3.org/2000/svg"
   xmlns="http://www.w3.org/2000/svg"
   viewBox="0 0 1488.1875 1052.3625"
   height="1052.3625"
   width="1488.1875"
   xml:space="preserve"
   version="1.1"
   id="svg2"><metadata
     id="metadata8"><rdf:RDF><cc:Work
         rdf:about=""><dc:format>image/svg+xml</dc:format><dc:type
           rdf:resource="http://purl.org/dc/dcmitype/StillImage" /></cc:Work></rdf:RDF></metadata><defs
     id="defs6"><clipPath
       id="clipPath114"
       clipPathUnits="userSpaceOnUse"><path
         id="path116"
         d="m 0,841.89 1190.55,0 L 1190.55,0 0,0 0,841.89 Z" /></clipPath></defs><g
     transform="matrix(1.25,0,0,-1.25,0,1052.3625)"
     id="g10"><path
       id="path12"
       style="fill:#41454b;fill-opacity:1;fill-rule:nonzero;stroke:none"
       d="m 0,0 1190.55,0 0,841.89 L 0,841.89 0,0 Z" /><g
       transform="translate(926.1914,492.1299)"
       id="g14"><path
         id="path16"
         style="fill:#c96543;fill-opacity:1;fill-rule:nonzero;stroke:none"
         d="M 0,0 -29.052,-67.693 -36.213,6.749 0,0 Z" /></g><g
       transform="translate(738.2188,736.8554)"
       id="g18"><path
         id="path20"
         style="fill:#c96543;fill-opacity:1;fill-rule:nonzero;stroke:none"
         d="M 0,0 -34.802,-86.778 -57.993,-68.472 0,0 Z" /></g><g
       transform="translate(784.9043,675.7051)"
       id="g22"><path
         id="path24"
         style="fill:#c96543;fill-opacity:1;fill-rule:nonzero;stroke:none"
         d="M 0,0 -23.064,-87.844 -43.667,-53.92 0,0 Z" /></g><g
       transform="translate(544.751,414.0207)"
       id="g26"><path
         id="path28"
         style="fill:#cececd;fill-opacity:1;fill-rule:nonzero;stroke:none"
         d="m 0,0 -35.373,-222.131 35.439,0 107.514,184.91 177.546,-0.413 8.836,17.647 L 47.307,92.574 0,0 Z" /></g><g
       transform="translate(891.4707,424.4316)"
       id="g30"><path
         id="path32"
         style="fill:#ffffff;fill-opacity:1;fill-rule:nonzero;stroke:none"
         d="m 0,0 -48.001,-32.184 -258.563,117.912 -166.571,-317.631 -140.127,-1.629 285.474,328.925 116.892,50.602 77.471,-24.895 -45.244,38.728 3.799,1.766 4.831,50.498 -14.74,12.207 71.876,26.808 -44.534,-52.611 57.842,-92.623 L -7.151,74.457 0,0 Z" /></g><g
       transform="translate(731.8701,736.6885)"
       id="g34"><path
         id="path36"
         style="fill:#ffffff;fill-opacity:1;fill-rule:nonzero;stroke:none"
         d="m 0,0 -57.992,-68.478 41.814,-33.667 -3.604,-44.876 -153.448,-63.31 -291.411,-334.928 192.217,411.805 L -77.1,-27.812 0,0 Z" /></g><g
       transform="translate(906.8145,479.9511)"
       id="g38"><path
         id="path40"
         style="fill:#a6593e;fill-opacity:1;fill-rule:nonzero;stroke:none"
         d="M 0,0 -9.165,-55.195 19.377,12.179 0,0 Z" /></g><g
       transform="translate(267.2295,191.4292)"
       id="g42"><path
         id="path44"
         style="fill:#e2e2e3;fill-opacity:1;fill-rule:nonzero;stroke:none"
         d="m 0,0 203.662,402.58 183.879,114.867 77.1,27.812 L 222.802,386.454 0,0 Z" /></g><g
       transform="translate(843.6055,512.7051)"
       id="g46"><path
         id="path48"
         style="fill:#e2e2e3;fill-opacity:1;fill-rule:nonzero;stroke:none"
         d="M 0,0 47.865,-88.273 40.255,-13.561 0,0 Z" /></g><g
       transform="translate(584.9072,510.1601)"
       id="g50"><path
         id="path52"
         style="fill:#989595;fill-opacity:1;fill-rule:nonzero;stroke:none"
         d="M 0,0 258.562,-117.913 300.556,-90.024 259.514,-110.7 0,0 Z" /></g><g
       transform="translate(838.7129,394.1147)"
       id="g54"><path
         id="path56"
         style="fill:#989595;fill-opacity:1;fill-rule:nonzero;stroke:none"
         d="m 0,0 -8.836,-17.566 -177.546,0.572 163.986,9.309 L 0,0 Z" /></g><g
       transform="translate(816.3174,386.4292)"
       id="g58"><path
         id="path60"
         style="fill:#848281;fill-opacity:1;fill-rule:nonzero;stroke:none"
         d="M 0,0 13.56,-9.881 22.396,7.685 0,0 Z" /></g><g
       transform="translate(519.1133,201.3901)"
       id="g62"><path
         id="path64"
         style="fill:#989595;fill-opacity:1;fill-rule:nonzero;stroke:none"
         d="M 0,0 -10.346,-8.861 25.638,212.949 0,0 Z" /></g><g
       transform="translate(278.209,190.8999)"
       id="g66"><path
         id="path68"
         style="fill:#989595;fill-opacity:1;fill-rule:nonzero;stroke:none"
         d="M 0,0 140.127,1.629 306.698,319.26 129.129,21.182 0,0 Z" /></g><g
       transform="translate(508.7676,191.8896)"
       id="g70"><path
         id="path72"
         style="fill:#848281;fill-opacity:1;fill-rule:nonzero;stroke:none"
         d="M 0,0 10.346,8.861 36.05,0 0,0 Z" /></g><g
       transform="translate(704.9463,367.4878)"
       id="g74"><path
         id="path76"
         style="fill:#c96543;fill-opacity:1;fill-rule:nonzero;stroke:none"
         d="m 0,0 -38.767,-21.5 20.396,-154.098 -90.432,0 41.12,142.049 22.827,33.431 L 0,0 Z" /></g><g
       transform="translate(595.9185,192.144)"
       id="g78"><path
         id="path80"
         style="fill:#a6593e;fill-opacity:1;fill-rule:nonzero;stroke:none"
         d="M 0,0 74.827,10.23 90.432,0 0,0 Z" /></g><g
       transform="translate(670.7456,202.3745)"
       id="g82"><path
         id="path84"
         style="fill:#7e4936;fill-opacity:1;fill-rule:nonzero;stroke:none"
         d="M 0,0 -4.791,143.74 15.604,-10.23 0,0 Z" /></g><g
       transform="translate(674.1333,667.6445)"
       id="g86"><path
         id="path88"
         style="fill:#e2e2e3;fill-opacity:1;fill-rule:nonzero;stroke:none"
         d="M 0,0 33.334,-35.5 42,-33.5 0,0 Z" /></g><g
       transform="translate(707.4673,632.1445)"
       id="g90"><path
         id="path92"
         style="fill:#989595;fill-opacity:1;fill-rule:nonzero;stroke:none"
         d="M 0,0 4.166,-43.5 8.666,2 0,0 Z" /></g><g
       transform="translate(551.9766,531.6489)"
       id="g94"><path
         id="path96"
         style="fill:#989595;fill-opacity:1;fill-rule:nonzero;stroke:none"
         d="M 0,0 6.546,-5.388 -284.772,-340.105 0,0 Z" /></g><g
       transform="translate(558.5229,526.2607)"
       id="g98"><path
         id="path100"
         style="fill:#848281;fill-opacity:1;fill-rule:nonzero;stroke:none"
         d="M 0,0 153.11,62.384 -6.546,5.388 0,0 Z" /></g><path
       id="path102"
       style="fill:#c96543;fill-opacity:1;fill-rule:nonzero;stroke:none"
       d="m 699,102.89 -435,0 0,3 435,0 0,-3 z" /><g
       transform="translate(272.3232,176.3042)"
       id="g104"><path
         id="path106"
         style="fill:#ffffff;fill-opacity:1;fill-rule:nonzero;stroke:none"
         d="m 0,0 -8.19,0 0,-41.141 5.25,0 0,35.022 11.9,-35.022 4.91,0 0.1,0.301 L 0,0 Z m 23.75,0 -9.273,-27.145 4.347,0.061 6.996,20.375 0,-34.432 5.25,0 0,41.141 -7.32,0 z" /></g><path
       id="path108"
       style="fill:#ffffff;fill-opacity:1;fill-rule:nonzero;stroke:none"
       d="m 315.983,135.163 5.44,0 0,41.141 -5.44,0 0,-41.141 z" /><g
       id="g110"><g
         clip-path="url(#clipPath114)"
         id="g112"><g
           transform="translate(353.1431,156.1245)"
           id="g118"><path
             id="path120"
             style="fill:#ffffff;fill-opacity:1;fill-rule:nonzero;stroke:none"
             d="m 0,0 0,-4.83 12.1,0 0,-7.66 c -1.16,-1.03 -2.86,-2 -5.11,-2.901 -2.24,-0.91 -4.55,-1.359 -6.9,-1.359 -2.72,0 -5.28,0.6 -7.69,1.789 -2.42,1.201 -4.25,3.031 -5.52,5.5 -1.26,2.471 -1.89,5.541 -1.89,9.211 0,2.971 0.52,5.73 1.57,8.279 0.62,1.471 1.48,2.83 2.6,4.071 1.11,1.23 2.57,2.23 4.39,2.98 1.81,0.76 3.96,1.141 6.45,1.141 2.08,0 3.97,-0.362 5.67,-1.08 1.7,-0.721 3.01,-1.68 3.93,-2.881 0.92,-1.19 1.68,-2.84 2.3,-4.94 l 4.91,1.35 c -0.71,2.769 -1.75,5.019 -3.11,6.74 -1.37,1.721 -3.25,3.061 -5.66,4.02 -2.4,0.97 -5.09,1.451 -8.07,1.451 -4.09,0 -7.71,-0.842 -10.86,-2.531 -3.14,-1.68 -5.55,-4.26 -7.22,-7.731 -1.68,-3.469 -2.51,-7.209 -2.51,-11.209 0,-4.041 0.84,-7.699 2.52,-10.971 1.69,-3.279 4.18,-5.779 7.48,-7.509 3.3,-1.731 6.97,-2.59 11.02,-2.59 2.99,0 5.91,0.529 8.75,1.609 2.85,1.071 5.61,2.682 8.28,4.811 l 0,15.269 L 0,0 Z" /></g><g
           transform="translate(408.4731,176.3042)"
           id="g122"><path
             id="path124"
             style="fill:#ffffff;fill-opacity:1;fill-rule:nonzero;stroke:none"
             d="m 0,0 0,-23.74 c 0,-5.17 -0.85,-8.66 -2.56,-10.469 -1.7,-1.82 -4.55,-2.721 -8.56,-2.721 -2.33,0 -4.31,0.45 -5.93,1.369 -1.62,0.92 -2.76,2.221 -3.42,3.92 -0.67,1.692 -1,4.321 -1,7.901 l 0,23.74 -5.45,0 0,-23.77 c 0,-4.359 0.53,-7.8 1.58,-10.32 1.04,-2.51 2.79,-4.43 5.24,-5.76 2.45,-1.33 5.61,-1.99 9.46,-1.99 3.97,0 7.17,0.76 9.61,2.279 2.44,1.532 4.13,3.512 5.07,5.942 0.93,2.43 1.4,5.709 1.4,9.849 L 5.44,0 0,0 Z" /></g><g
           transform="translate(431.4131,140.0151)"
           id="g126"><path
             id="path128"
             style="fill:#ffffff;fill-opacity:1;fill-rule:nonzero;stroke:none"
             d="m 0,0 0,14.01 22.76,0 0,4.82 -22.76,0 0,12.6 24.3,0 0,4.859 -29.75,0 0,-41.141 30.7,0 L 25.25,0 0,0 Z" /></g><g
           transform="translate(472.2832,140.0151)"
           id="g130"><path
             id="path132"
             style="fill:#ffffff;fill-opacity:1;fill-rule:nonzero;stroke:none"
             d="m 0,0 0,36.289 -5.44,0 0,-41.141 25.7,0 L 20.26,0 0,0 Z" /></g><g
           transform="translate(543.5933,176.3042)"
           id="g134"><path
             id="path136"
             style="fill:#ffffff;fill-opacity:1;fill-rule:nonzero;stroke:none"
             d="m 0,0 -13.87,0 -15.46,-41.141 12.98,0 2,6.791 10.572,0 -2.222,8.891 -5.59,0 4.5,14.789 4.54,-14.789 -0.02,0 3.69,-12.031 -0.08,0 1.1,-3.651 13.32,0 L 0,0 Z" /></g><g
           transform="translate(578.6733,145.2944)"
           id="g138"><path
             id="path140"
             style="fill:#ffffff;fill-opacity:1;fill-rule:nonzero;stroke:none"
             d="m 0,0 0,31.01 -12.71,0 0,-41.141 32.56,0 L 19.85,0 0,0 Z" /></g><g
           transform="translate(631.1431,145.1635)"
           id="g142"><path
             id="path144"
             style="fill:#ffffff;fill-opacity:1;fill-rule:nonzero;stroke:none"
             d="m 0,0 c -0.899,-0.77 -2.439,-1.158 -4.63,-1.158 l -6.49,0 0,8.33 6.46,0 c 2.23,0 3.78,-0.371 4.67,-1.111 C 0.9,5.32 1.34,4.352 1.34,3.131 1.34,1.82 0.9,0.781 0,0 m -11.12,22.801 5.62,0 c 1.92,0 3.28,-0.33 4.05,-1.01 0.78,-0.67 1.171,-1.609 1.171,-2.801 0,-1.289 -0.391,-2.279 -1.171,-2.959 C -2.22,15.342 -3.6,15 -5.59,15 l -5.53,0 0,7.801 z M 11.99,8.221 c -1.389,1.73 -3.559,2.961 -6.519,3.67 1.939,0.67 3.42,1.589 4.439,2.75 1.51,1.74 2.271,3.82 2.271,6.259 0,2.891 -1.061,5.33 -3.191,7.291 -2.12,1.969 -5.17,2.95 -9.13,2.95 l -23.799,0 0,-41.141 21.939,0 c 0.94,0 2.84,0.182 5.7,0.561 2.151,0.281 3.76,0.73 4.83,1.339 1.72,1 3.08,2.34 4.071,4.051 0.989,1.699 1.479,3.619 1.479,5.75 0,2.619 -0.689,4.789 -2.09,6.52" /></g><g
           transform="translate(679.0933,176.3042)"
           id="g146"><path
             id="path148"
             style="fill:#ffffff;fill-opacity:1;fill-rule:nonzero;stroke:none"
             d="m 0,0 -13.87,0 -15.46,-41.141 12.979,0 2,6.791 10.573,0 -2.222,8.891 -5.59,0 4.5,14.789 4.54,-14.789 -0.019,0 3.689,-12.031 -0.08,0 1.1,-3.651 13.32,0 L 0,0 Z" /></g><g
           transform="translate(265.1934,118.355)"
           id="g150"><path
             id="path152"
             style="fill:#cececd;fill-opacity:1;fill-rule:nonzero;stroke:none"
             d="m 0,0 0,2.73 4.44,0 0,0.94 -4.44,0 0,2.459 4.74,0 0,0.941 -5.8,0 0,-8.021 5.99,0 L 4.93,0 0,0 Z" /></g><g
           transform="translate(280.0835,125.4253)"
           id="g154"><path
             id="path156"
             style="fill:#cececd;fill-opacity:1;fill-rule:nonzero;stroke:none"
             d="M 0,0 0,-6.301 -4.22,0 l -1.09,0 0,-8.021 1.02,0 0,6.3 4.21,-6.3 1.09,0 L 1.01,0 0,0 Z" /></g><g
           transform="translate(289.8335,121.4936)"
           id="g158"><path
             id="path160"
             style="fill:#cececd;fill-opacity:1;fill-rule:nonzero;stroke:none"
             d="m 0,0 0,-0.939 2.36,0 0,-1.5 C 2.13,-2.639 1.8,-2.83 1.36,-3.01 0.92,-3.18 0.48,-3.27 0.02,-3.27 c -0.53,0 -1.03,0.122 -1.5,0.35 -0.48,0.231 -0.83,0.59 -1.08,1.07 -0.25,0.481 -0.37,1.08 -0.37,1.801 0,0.58 0.1,1.119 0.31,1.61 0.12,0.291 0.29,0.56 0.5,0.8 0.22,0.241 0.51,0.43 0.86,0.58 C -0.91,3.092 -0.49,3.16 0,3.16 0.4,3.16 0.77,3.092 1.1,2.951 1.44,2.811 1.69,2.621 1.87,2.391 2.05,2.16 2.2,1.83 2.32,1.432 L 3.28,1.691 C 3.14,2.23 2.94,2.67 2.67,3 2.4,3.342 2.04,3.602 1.57,3.791 1.1,3.98 0.57,4.07 -0.01,4.07 -0.81,4.07 -1.51,3.91 -2.13,3.58 -2.74,3.25 -3.21,2.75 -3.53,2.07 -3.86,1.391 -4.02,0.66 -4.02,-0.119 c 0,-0.789 0.16,-1.5 0.49,-2.141 0.33,-0.638 0.81,-1.129 1.46,-1.459 0.64,-0.34 1.36,-0.51 2.15,-0.51 0.58,0 1.15,0.11 1.7,0.321 0.56,0.209 1.1,0.519 1.62,0.939 L 3.4,0 0,0 Z" /></g><path
           id="path162"
           style="fill:#cececd;fill-opacity:1;fill-rule:nonzero;stroke:none"
           d="m 298.173,117.404 1.06,0 0,8.021 -1.06,0 0,-8.021 z" /><g
           transform="translate(309.5933,125.4253)"
           id="g164"><path
             id="path166"
             style="fill:#cececd;fill-opacity:1;fill-rule:nonzero;stroke:none"
             d="M 0,0 0,-6.301 -4.21,0 -5.3,0 l 0,-8.021 1.02,0 0,6.3 4.21,-6.3 1.09,0 L 1.02,0 0,0 Z" /></g><g
           transform="translate(316.6831,118.355)"
           id="g168"><path
             id="path170"
             style="fill:#cececd;fill-opacity:1;fill-rule:nonzero;stroke:none"
             d="m 0,0 0,2.73 4.44,0 0,0.94 -4.44,0 0,2.459 4.74,0 0,0.941 -5.81,0 0,-8.021 5.99,0 L 4.92,0 0,0 Z" /></g><g
           transform="translate(329.6333,121.8843)"
           id="g172"><path
             id="path174"
             style="fill:#cececd;fill-opacity:1;fill-rule:nonzero;stroke:none"
             d="m 0,0 -2.29,0 0,2.66 2.54,0 C 0.85,2.66 1.28,2.529 1.56,2.291 1.83,2.051 1.97,1.73 1.97,1.35 1.97,1.09 1.9,0.85 1.76,0.631 1.62,0.41 1.41,0.25 1.13,0.15 0.86,0.051 0.48,0 0,0 m 2.33,-2.299 c -0.28,0.43 -0.57,0.779 -0.88,1.069 -0.15,0.13 -0.36,0.259 -0.64,0.4 0.77,0.1 1.34,0.35 1.7,0.74 0.37,0.391 0.56,0.869 0.56,1.44 0,0.451 -0.11,0.851 -0.34,1.211 C 2.51,2.93 2.21,3.18 1.84,3.33 1.47,3.471 0.92,3.541 0.21,3.541 l -3.56,0 0,-8.021 1.06,0 0,3.56 1.24,0 c 0.27,0 0.47,-0.01 0.59,-0.039 C -0.3,-1 -0.14,-1.07 0.02,-1.17 c 0.16,-0.1 0.34,-0.279 0.54,-0.539 0.2,-0.25 0.46,-0.621 0.77,-1.102 l 1.06,-1.669 1.33,0 -1.39,2.181 z" /></g><path
           id="path176"
           style="fill:#cececd;fill-opacity:1;fill-rule:nonzero;stroke:none"
           d="m 337.743,117.404 1.06,0 0,8.021 -1.06,0 0,-8.021 z" /><g
           transform="translate(349.1631,125.4253)"
           id="g178"><path
             id="path180"
             style="fill:#cececd;fill-opacity:1;fill-rule:nonzero;stroke:none"
             d="M 0,0 0,-6.301 -4.21,0 -5.3,0 l 0,-8.021 1.01,0 0,6.3 4.22,-6.3 1.09,0 L 1.02,0 0,0 Z" /></g><g
           transform="translate(358.9131,121.4936)"
           id="g182"><path
             id="path184"
             style="fill:#cececd;fill-opacity:1;fill-rule:nonzero;stroke:none"
             d="m 0,0 0,-0.939 2.36,0 0,-1.5 C 2.14,-2.639 1.81,-2.83 1.37,-3.01 0.93,-3.18 0.48,-3.27 0.02,-3.27 c -0.53,0 -1.03,0.122 -1.5,0.35 -0.47,0.231 -0.83,0.59 -1.07,1.07 -0.25,0.481 -0.37,1.08 -0.37,1.801 0,0.58 0.1,1.119 0.3,1.61 0.12,0.291 0.29,0.56 0.51,0.8 0.22,0.241 0.5,0.43 0.86,0.58 C -0.9,3.092 -0.48,3.16 0,3.16 0.41,3.16 0.78,3.092 1.11,2.951 1.44,2.811 1.7,2.621 1.88,2.391 2.06,2.16 2.21,1.83 2.33,1.432 L 3.28,1.691 C 3.14,2.23 2.94,2.67 2.68,3 2.41,3.342 2.04,3.602 1.57,3.791 1.1,3.98 0.58,4.07 0,4.07 -0.8,4.07 -1.51,3.91 -2.12,3.58 -2.73,3.25 -3.2,2.75 -3.53,2.07 -3.86,1.391 -4.02,0.66 -4.02,-0.119 c 0,-0.789 0.16,-1.5 0.49,-2.141 0.33,-0.638 0.82,-1.129 1.46,-1.459 0.65,-0.34 1.36,-0.51 2.15,-0.51 0.58,0 1.15,0.11 1.71,0.321 0.55,0.209 1.09,0.519 1.61,0.939 L 3.4,0 0,0 Z" /></g><g
           transform="translate(370.1631,118.4135)"
           id="g186"><path
             id="path188"
             style="fill:#c96543;fill-opacity:1;fill-rule:nonzero;stroke:none"
             d="m 0,0 c -0.32,-0.189 -0.62,-0.279 -0.92,-0.279 -0.47,0 -0.84,0.179 -1.1,0.529 -0.26,0.352 -0.39,0.692 -0.39,1.012 0,0.269 0.1,0.539 0.28,0.808 0.19,0.272 0.55,0.561 1.08,0.881 L 0.76,0.711 C 0.57,0.422 0.32,0.182 0,0 m -1.18,6.08 c 0.17,0.17 0.4,0.262 0.66,0.262 0.26,0 0.48,-0.092 0.65,-0.262 C 0.3,5.91 0.39,5.682 0.39,5.41 0.39,5.182 0.33,4.971 0.2,4.781 0.08,4.592 -0.2,4.371 -0.63,4.121 l -0.44,0.51 c -0.12,0.15 -0.22,0.291 -0.28,0.43 -0.07,0.14 -0.1,0.269 -0.1,0.39 0,0.25 0.09,0.459 0.27,0.629 m 3.2,-5.26 c 0.3,0.451 0.53,1.032 0.71,1.731 L 1.71,2.771 C 1.61,2.342 1.49,1.971 1.32,1.65 L -0.12,3.48 C 0.89,4.021 1.4,4.672 1.4,5.442 1.4,5.91 1.22,6.311 0.88,6.65 c -0.35,0.33 -0.8,0.5 -1.35,0.5 -0.57,0 -1.05,-0.179 -1.42,-0.529 -0.38,-0.359 -0.57,-0.779 -0.57,-1.26 0,-0.24 0.06,-0.49 0.18,-0.75 0.12,-0.259 0.36,-0.599 0.72,-1.009 -0.63,-0.311 -1.11,-0.66 -1.43,-1.061 -0.32,-0.4 -0.48,-0.84 -0.48,-1.34 0,-0.56 0.2,-1.06 0.59,-1.519 0.48,-0.551 1.13,-0.83 1.95,-0.83 0.45,0 0.86,0.09 1.24,0.269 0.39,0.18 0.74,0.449 1.07,0.821 0.42,-0.5 0.83,-0.881 1.23,-1.141 L 3.27,-0.42 C 2.8,-0.078 2.39,0.33 2.02,0.82" /></g><g
           transform="translate(383.0835,119.9253)"
           id="g190"><path
             id="path192"
             style="fill:#cececd;fill-opacity:1;fill-rule:nonzero;stroke:none"
             d="M 0,0 C -0.14,-0.42 -0.34,-0.762 -0.59,-1.012 -0.77,-1.191 -1.01,-1.33 -1.31,-1.432 -1.61,-1.531 -2.03,-1.57 -2.56,-1.57 l -1.71,0 0,6.129 1.69,0 c 0.63,0 1.09,-0.059 1.37,-0.17 C -0.82,4.238 -0.48,3.939 -0.2,3.488 0.07,3.039 0.21,2.389 0.21,1.549 0.21,0.939 0.14,0.43 0,0 M 0.99,3.439 C 0.78,4 0.46,4.459 0.04,4.809 -0.29,5.09 -0.68,5.279 -1.14,5.389 -1.47,5.469 -1.94,5.5 -2.57,5.5 l -2.76,0 0,-8.021 2.89,0 c 0.49,0 0.92,0.041 1.29,0.13 0.38,0.1 0.7,0.231 0.96,0.411 0.27,0.169 0.51,0.419 0.73,0.73 0.22,0.299 0.41,0.689 0.55,1.16 0.14,0.479 0.21,1.02 0.21,1.619 0,0.721 -0.1,1.36 -0.31,1.91" /></g><g
           transform="translate(390.1235,118.355)"
           id="g194"><path
             id="path196"
             style="fill:#cececd;fill-opacity:1;fill-rule:nonzero;stroke:none"
             d="m 0,0 0,2.73 4.44,0 0,0.94 -4.44,0 0,2.459 4.75,0 0,0.941 -5.81,0 0,-8.021 5.99,0 L 4.93,0 0,0 Z" /></g><g
           transform="translate(405.1533,125.4253)"
           id="g198"><path
             id="path200"
             style="fill:#cececd;fill-opacity:1;fill-rule:nonzero;stroke:none"
             d="m 0,0 -2.16,-5.83 c -0.17,-0.441 -0.31,-0.871 -0.44,-1.311 -0.11,0.411 -0.25,0.85 -0.42,1.311 L -5.1,0 l -1.15,0 3.11,-8.021 1.09,0 L 1.09,0 0,0 Z" /></g><g
           transform="translate(411.4731,118.355)"
           id="g202"><path
             id="path204"
             style="fill:#cececd;fill-opacity:1;fill-rule:nonzero;stroke:none"
             d="m 0,0 0,2.73 4.44,0 0,0.94 -4.44,0 0,2.459 4.74,0 0,0.941 -5.8,0 0,-8.021 5.99,0 L 4.93,0 0,0 Z" /></g><g
           transform="translate(422.0835,118.355)"
           id="g206"><path
             id="path208"
             style="fill:#cececd;fill-opacity:1;fill-rule:nonzero;stroke:none"
             d="m 0,0 0,7.07 -1.06,0 0,-8.021 5.01,0 L 3.95,0 0,0 Z" /></g><g
           transform="translate(435.9731,119.0151)"
           id="g210"><path
             id="path212"
             style="fill:#cececd;fill-opacity:1;fill-rule:nonzero;stroke:none"
             d="m 0,0 c -0.51,-0.561 -1.17,-0.84 -1.97,-0.84 -0.79,0 -1.44,0.279 -1.96,0.83 -0.52,0.559 -0.78,1.319 -0.78,2.289 0,1.211 0.27,2.071 0.82,2.59 0.54,0.51 1.18,0.77 1.94,0.77 0.53,0 1,-0.129 1.43,-0.399 C -0.1,4.969 0.23,4.59 0.45,4.109 0.67,3.619 0.78,3.049 0.78,2.389 0.78,1.359 0.52,0.559 0,0 M 1.4,4.539 C 1.09,5.18 0.64,5.67 0.04,6.02 -0.55,6.379 -1.22,6.559 -1.96,6.559 -3.09,6.559 -4.01,6.18 -4.73,5.42 -5.44,4.67 -5.8,3.629 -5.8,2.299 c 0,-0.709 0.15,-1.379 0.46,-2.01 0.3,-0.629 0.75,-1.129 1.35,-1.49 0.59,-0.369 1.27,-0.549 2.03,-0.549 0.69,0 1.34,0.17 1.94,0.5 0.61,0.33 1.07,0.809 1.4,1.459 0.33,0.641 0.49,1.371 0.49,2.18 0,0.8 -0.15,1.521 -0.47,2.15" /></g><g
           transform="translate(447.0132,121.9936)"
           id="g214"><path
             id="path216"
             style="fill:#cececd;fill-opacity:1;fill-rule:nonzero;stroke:none"
             d="m 0,0 c -0.29,-0.25 -0.78,-0.379 -1.47,-0.379 l -2.07,0 0,2.869 2.05,0 c 0.48,0 0.81,-0.029 0.99,-0.08 C -0.22,2.342 0,2.182 0.17,1.941 0.34,1.701 0.43,1.41 0.43,1.08 0.43,0.621 0.28,0.262 0,0 M 1.28,2.211 C 1.12,2.541 0.9,2.801 0.64,2.98 0.37,3.17 0.04,3.291 -0.36,3.361 -0.64,3.41 -1.04,3.432 -1.58,3.432 l -3.02,0 0,-8.022 1.06,0 0,3.26 2.06,0 c 1.13,0 1.92,0.24 2.35,0.711 0.44,0.471 0.65,1.051 0.65,1.73 0,0.401 -0.08,0.76 -0.24,1.1" /></g><g
           transform="translate(459.2832,125.4253)"
           id="g218"><path
             id="path220"
             style="fill:#cececd;fill-opacity:1;fill-rule:nonzero;stroke:none"
             d="m 0,0 -1.92,-5.58 c -0.2,-0.57 -0.34,-0.99 -0.43,-1.291 -0.08,0.269 -0.21,0.66 -0.38,1.189 L -4.63,0 l -1.6,0 0,-8.021 1.02,0 0,6.83 2.32,-6.83 0.96,0 2.33,6.71 0,-6.71 1.03,0 L 1.43,0 0,0 Z" /></g><g
           transform="translate(466.7031,118.355)"
           id="g222"><path
             id="path224"
             style="fill:#cececd;fill-opacity:1;fill-rule:nonzero;stroke:none"
             d="m 0,0 0,2.73 4.44,0 0,0.94 -4.44,0 0,2.459 4.74,0 0,0.941 -5.8,0 0,-8.021 5.99,0 L 4.93,0 0,0 Z" /></g><g
           transform="translate(481.5835,125.4253)"
           id="g226"><path
             id="path228"
             style="fill:#cececd;fill-opacity:1;fill-rule:nonzero;stroke:none"
             d="M 0,0 0,-6.301 -4.21,0 -5.3,0 l 0,-8.021 1.02,0 0,6.3 4.21,-6.3 1.09,0 L 1.02,0 0,0 Z" /></g><g
           transform="translate(486.9834,125.4253)"
           id="g230"><path
             id="path232"
             style="fill:#cececd;fill-opacity:1;fill-rule:nonzero;stroke:none"
             d="m 0,0 0,-0.941 2.64,0 0,-7.08 1.06,0 0,7.08 2.66,0 L 6.36,0 0,0 Z" /></g></g></g></g></svg>