<svg  xmlns="http://www.w3.org/2000/svg" class="thumb">
    <defs>
        <linearGradient id="svg_1" y2="0.5" x2="1" y1="0.5" x1="0">
            <stop stop-color="#1676ba" offset="0%"/>
            <stop stop-color="#1676ba" offset="100%"/>
        </linearGradient>
    </defs>
    <g>
        <title>background</title>
        <rect fill="none" id="canvas_background" height="402" width="582" y="-1" x="-1"/>
    </g>
    <g>
        <title>Layer 1</title>

        <g transform="matrix(0.7392592683792115,0,0,1.0574710802078249,349.2540323798331,144.59583411019435) " id="svg_9">
            <path id="svg_10" fill="url(#svg_1)" d="m64.743398,83.428406l-8.39,0.49q0,-4.49 -0.79001,-7.59q-0.78,-3.1 -1.97,-5.1q-1.19999,-2.01 -2.59,-3.11q-1.38999,-1.09 -2.60999,-1.61q-1.22,-0.51 -2.03,-0.58q-0.80001,-0.08 -0.85001,-0.08l0,0q-3.36999,0 -6.15999,1.84q-2.78001,1.83 -4.76001,5.56q-1.97,3.74 -3.06999,9.38q-1.1,5.64 -1.1,13.2l0,0q0,7.57 1,13.29q1,5.71 2.81,9.57q1.79999,3.85 4.37,5.81q2.55999,1.95 5.73,1.95l0,0q2.4,-0.2 4.44999,-1.76l0,0q0.88,-0.63 1.78,-1.66q0.90001,-1.02 1.71001,-2.54q0.79999,-1.51 1.48999,-3.54q0.68,-2.02 1.07001,-4.71l0,0l7.81,0.59q-0.53,3.66 -1.61001,6.47q-1.06999,2.8 -2.46,4.88q-1.39,2.07 -2.98,3.49q-1.59,1.42 -3.15,2.34l0,0q-3.70999,2.15 -8.01,2.45l0,0q-5.71,0 -10.18,-2.32q-4.47,-2.32 -7.51999,-6.89q-3.05001,-4.56 -4.64001,-11.35q-1.57999,-6.79 -1.57999,-15.67l0,0q0,-18.51 6.29999,-27.96q6.29,-9.45 19.43001,-9.45l0,0q0.15,0 1,0.05q0.84999,0.05 2.16999,0.34q1.32001,0.3 2.98001,0.91q1.66,0.61 3.36999,1.78q1.71,1.17 3.32001,2.93q1.60999,1.76 2.88,4.37q1.27,2.61 2.03,6.13q0.75,3.51 0.75,8.1l0,0zm43.70343,46.63l-6.69,0.39q-0.39,-7.42 -0.75,-13.2q-0.37,-5.79 -0.66,-9.79l0,0q-0.35,-4.69 -0.69,-8.21l0,0q-0.44,-5.91 -1.51,-8.91q-1.07,-3 -2.78,-3l0,0q-1.62,0 -3.35,2.1q-1.73,2.1 -3.44,5.56q-1.71,3.47 -3.3,7.94q-1.58,4.47 -2.88,9.2q-1.29,4.74 -2.27,9.33q-0.97,4.59 -1.46,8.35l0,0l-6.5,0.24q0,-17.38 -0.22,-30.42q-0.22,-13.03 -0.46,-21.73q-0.24,-8.69 -0.46,-13.03q-0.22,-4.35 -0.27,-4.35l0,0l8.4,0.39l0,40.73q1.07,-2.98 2.09,-5.23q1.03,-2.25 1.81,-3.76l0,0q0.88,-1.76 1.71,-3.03l0,0q1.47,-2.34 3.08,-4.2q1.61,-1.85 3.29,-3.14q1.69,-1.3 3.32,-1.98q1.64,-0.69 3.2,-0.69l0,0q3.08,0 5.03,2.86q1.95,2.86 2.88,9.06l0,0q0.78,4.98 1.37,11.03l0,0q0.54,5.18 0.98,12.21q0.43,7.03 0.53,15.28l0,0zm46.82547,-26.41l0,0q-0.09,4.93 -0.29,9.81l0,0q-0.1,2.1 -0.2,4.4q-0.09,2.29 -0.22,4.61q-0.12,2.32 -0.29,4.57q-0.17,2.24 -0.32,4.2l0,0l-6.68,-0.2q0.09,-1.42 0.14,-2.78q0.05,-1.37 0.05,-2.74l0,0q-2.2,2.35 -4.64,3.66q-2.44,1.32 -4.64,2.01l0,0q-2.54,0.83 -5.03,1.07l0,0q-0.53,0.1 -1,0.1q-0.46,0 -1,0l0,0q-3.42,0 -6.54,-0.95q-3.13,-0.96 -5.54,-2.91q-2.42,-1.95 -3.86,-4.91q-1.44,-2.95 -1.44,-6.95l0,0q0,-3.52 1.39,-6.62q1.39,-3.1 3.91,-5.42q2.51,-2.32 6.08,-3.69q3.56,-1.36 7.91,-1.46l0,0q0.14,0 1.66,0.1q1.51,0.09 3.68,0.61q2.18,0.51 4.69,1.61q2.51,1.1 4.66,3.05l0,0q0,-2.2 -0.09,-4.64q-0.1,-2.44 -0.47,-4.81q-0.36,-2.37 -1.15,-4.52q-0.78,-2.14 -2.12,-3.78q-1.34,-1.64 -3.39,-2.59q-2.05,-0.95 -4.98,-0.95l0,0q-2.3,0 -4.2,0.88q-1.91,0.88 -3.37,2.39q-1.47,1.52 -2.44,3.59q-0.98,2.08 -1.47,4.47l0,0l-8.2,-2.64q0.58,-2.78 1.68,-4.93q1.1,-2.15 2.49,-3.76q1.4,-1.61 2.98,-2.76q1.59,-1.15 3.15,-1.93l0,0q3.66,-1.8 7.91,-2.19l0,0q5.86,0 9.91,1.75q4.06,1.76 6.57,5.18q2.52,3.42 3.61,8.45q1.1,5.03 1.1,11.62zm-7.61,13.57l0,0q0,-0.97 0.04,-1.93q0.05,-0.95 0.05,-1.83l0,0q-2.58,-2.63 -5.1,-4q-2.51,-1.37 -4.56,-2.05l0,0q-2.35,-0.78 -4.55,-0.88l0,0q-3.02,0 -5.2,0.85q-2.17,0.86 -3.56,2.27q-1.39,1.42 -2.05,3.23q-0.66,1.8 -0.66,3.76l0,0q0,2 0.73,3.61q0.73,1.61 2.08,2.73q1.34,1.13 3.27,1.74q1.93,0.61 4.32,0.61l0,0q2.34,-0.2 4.88,-1.08l0,0q2.2,-0.78 4.86,-2.41q2.66,-1.64 5.45,-4.62zm52.58742,-21.19l-8.79,-0.29q0.09,-0.44 0.09,-0.91q0,-0.46 0,-1l0,0q0,-2.49 -0.7,-4.66q-0.71,-2.17 -2.01,-3.81q-1.29,-1.63 -3.14,-2.59q-1.86,-0.95 -4.11,-0.95l0,0q-2.58,0 -4.68,0.66q-2.1,0.66 -3.59,1.93q-1.49,1.27 -2.32,3.15q-0.83,1.88 -0.83,4.37l0,0q0,1.41 0.71,2.9q0.7,1.49 2.12,2.81q1.42,1.32 3.49,2.35q2.08,1.02 4.86,1.46l0,0q5.22,0.88 8.52,2.56q3.3,1.69 5.18,3.79q1.88,2.1 2.56,4.34q0.68,2.25 0.68,4.2l0,0q0,1.22 -0.27,2.79q-0.26,1.56 -1,3.22q-0.73,1.66 -2.02,3.25q-1.3,1.58 -3.35,2.83q-2.05,1.24 -4.9,2.02q-2.86,0.79 -6.77,0.79l0,0q-0.39,0 -1.73,-0.1q-1.34,-0.1 -3.17,-0.64q-1.84,-0.53 -3.91,-1.61q-2.08,-1.07 -3.93,-3.03q-1.86,-1.95 -3.25,-4.93q-1.39,-2.98 -1.83,-7.27l0,0l8.01,-0.44q0.34,2.83 1.24,4.73q0.91,1.91 2.1,3.15q1.2,1.25 2.49,1.93q1.3,0.69 2.44,1q1.15,0.32 1.96,0.37q0.8,0.05 0.95,0.05l0,0q2.05,-0.05 3.74,-0.71q1.68,-0.66 2.85,-1.68q1.17,-1.03 1.81,-2.37q0.63,-1.35 0.63,-2.76l0,0q0,-1.22 -0.44,-2.39q-0.44,-1.18 -1.63,-2.23q-1.2,-1.05 -3.27,-1.92q-2.08,-0.88 -5.35,-1.57l0,0q-5.27,-1.02 -8.67,-3.05q-3.39,-2.02 -5.39,-4.44q-2,-2.42 -2.79,-4.91q-0.78,-2.49 -0.78,-4.49l0,0q0,-2.98 1.03,-6.08q1.02,-3.1 3.34,-5.66q2.32,-2.57 6.08,-4.2q3.76,-1.64 9.28,-1.64l0,0q5.22,0.34 9.33,2.39l0,0q1.75,0.88 3.44,2.22q1.68,1.35 3,3.3q1.32,1.95 2.12,4.57q0.81,2.61 0.81,6.03l0,0q0,0.73 -0.07,1.53q-0.08,0.81 -0.17,1.64l0,0zm5.90813,-34.57l9.47,0.2q0,23.58 -0.59,46.77l0,0q4.59,-6.98 8.94,-14.26q4.34,-7.27 8.59,-14.74l0,0l9.18,3.12q-3.03,4.54 -6.08,8.84q-3.05,4.3 -6.13,8.55l0,0q2.93,7.76 6.45,15.18q3.52,7.42 7.37,14.7l0,0l-8.59,2q-2.78,-6.2 -5.27,-12.55q-2.49,-6.35 -4.54,-13.13l0,0q-2.59,3.32 -5.13,6.57q-2.54,3.24 -5.18,6.42l0,0l-0.39,11.42l-6.1,0q-0.25,-17.28 -0.71,-34.45q-0.46,-17.16 -1.29,-34.64l0,0zm52.78094,3.66l0,0q0,1.22 -0.47,2.27q-0.46,1.05 -1.24,1.81q-0.78,0.76 -1.83,1.2q-1.05,0.43 -2.22,0.43l0,0q-1.18,0 -2.22,-0.43q-1.05,-0.44 -1.81,-1.2q-0.76,-0.76 -1.22,-1.81q-0.47,-1.05 -0.47,-2.27l0,0q0,-1.17 0.47,-2.22q0.46,-1.05 1.22,-1.81q0.76,-0.75 1.81,-1.19q1.04,-0.44 2.22,-0.44l0,0q1.17,0 2.22,0.44q1.05,0.44 1.83,1.19q0.78,0.76 1.24,1.81q0.47,1.05 0.47,2.22zm-10.06,15.33l8.2,0.59l-0.83,48.78l-6.69,0l-0.68,-49.37zm71.28757,-19.23l11.43,0.14q-2,17.43 -3.1,34.79q-1.1,17.36 -1.44,34.99l0,0l-7.77,0l-18.31,-48.68q-1.17,24.21 -1.32,48.48l0,0l-7.86,0.1q0.1,-5.18 0.1,-10.35q0,-5.18 0,-10.45l0,0q0,-24.22 -0.73,-48.39l0,0l10.89,0.2l17.43,52.49q0.19,-3.91 0.34,-8.57q0.15,-4.67 0.27,-9.74q0.12,-5.08 0.19,-10.4q0.08,-5.33 0.08,-10.5l0,0q0,-3.67 -0.05,-7.21q-0.05,-3.54 -0.15,-6.9l0,0zm-3.81,-13.87l5.72,-0.49q0.39,1.12 0.63,2.3q0.24,1.17 0.24,2.39l0,0q0,1.56 -0.51,2.98q-0.51,1.41 -1.44,2.51q-0.93,1.1 -2.22,1.76q-1.29,0.66 -2.81,0.66l0,0q-1.95,0 -3.27,-1q-1.32,-1 -2.25,-2.2q-0.92,-1.2 -1.66,-2.2q-0.73,-1 -1.51,-1l0,0q-1.22,0 -1.56,0.86q-0.34,0.85 -0.34,1.83l0,0q0,0.88 0.19,1.71q0.2,0.83 0.49,1.56l0,0l-6.1,0.44q-0.1,-0.78 -0.15,-1.56q-0.05,-0.79 -0.05,-1.57l0,0q0,-1.51 0.39,-3.15q0.39,-1.63 1.22,-3q0.83,-1.37 2.1,-2.25q1.27,-0.87 3.08,-0.87l0,0q2.2,0 3.42,0.97q1.22,0.98 2.05,2.18q0.83,1.19 1.58,2.17q0.76,0.97 2.08,0.97l0,0q0.98,0 1.37,-0.63q0.39,-0.64 0.39,-1.66l0,0q0,-0.98 -0.32,-1.9q-0.32,-0.93 -0.76,-1.81l0,0zm61.32805,56.3l0,0q-0.09,4.93 -0.29,9.81l0,0q-0.1,2.1 -0.2,4.4q-0.09,2.29 -0.22,4.61q-0.12,2.32 -0.29,4.57q-0.17,2.24 -0.32,4.2l0,0l-6.68,-0.2q0.09,-1.42 0.14,-2.78q0.05,-1.37 0.05,-2.74l0,0q-2.2,2.35 -4.64,3.66q-2.44,1.32 -4.64,2.01l0,0q-2.54,0.83 -5.03,1.07l0,0q-0.53,0.1 -1,0.1q-0.46,0 -1,0l0,0q-3.42,0 -6.54,-0.95q-3.13,-0.96 -5.54,-2.91q-2.42,-1.95 -3.86,-4.91q-1.44,-2.95 -1.44,-6.95l0,0q0,-3.52 1.39,-6.62q1.39,-3.1 3.91,-5.42q2.51,-2.32 6.08,-3.69q3.56,-1.36 7.91,-1.46l0,0q0.14,0 1.66,0.1q1.51,0.09 3.68,0.61q2.18,0.51 4.69,1.61q2.51,1.1 4.66,3.05l0,0q0,-2.2 -0.09,-4.64q-0.1,-2.44 -0.47,-4.81q-0.36,-2.37 -1.15,-4.52q-0.78,-2.14 -2.12,-3.78q-1.34,-1.64 -3.39,-2.59q-2.05,-0.95 -4.98,-0.95l0,0q-2.3,0 -4.2,0.88q-1.91,0.88 -3.37,2.39q-1.47,1.52 -2.44,3.59q-0.98,2.08 -1.47,4.47l0,0l-8.2,-2.64q0.58,-2.78 1.68,-4.93q1.1,-2.15 2.49,-3.76q1.4,-1.61 2.98,-2.76q1.59,-1.15 3.15,-1.93l0,0q3.66,-1.8 7.91,-2.19l0,0q5.86,0 9.91,1.75q4.06,1.76 6.57,5.18q2.52,3.42 3.61,8.45q1.1,5.03 1.1,11.62zm-7.61,13.57l0,0q0,-0.97 0.04,-1.93q0.05,-0.95 0.05,-1.83l0,0q-2.58,-2.63 -5.1,-4q-2.51,-1.37 -4.56,-2.05l0,0q-2.35,-0.78 -4.55,-0.88l0,0q-3.02,0 -5.2,0.85q-2.17,0.86 -3.56,2.27q-1.39,1.42 -2.05,3.23q-0.66,1.8 -0.66,3.76l0,0q0,2 0.73,3.61q0.73,1.61 2.08,2.73q1.34,1.13 3.27,1.74q1.93,0.61 4.32,0.61l0,0q2.34,-0.2 4.88,-1.08l0,0q2.2,-0.78 4.86,-2.41q2.66,-1.64 5.45,-4.62zm53.99742,13.62l-6.69,0.4q-0.39,-7.43 -0.75,-13.36q-0.37,-5.93 -0.66,-10.13l0,0q-0.35,-4.88 -0.69,-8.69l0,0q-0.39,-5.91 -1.49,-8.91q-1.09,-3.01 -2.8,-3.01l0,0q-1.71,0 -3.47,2.15q-1.76,2.15 -3.47,5.71q-1.71,3.57 -3.24,8.13q-1.54,4.57 -2.84,9.4q-1.29,4.84 -2.24,9.57q-0.95,4.74 -1.44,8.55l0,0l-6.69,0.19q0.29,-8.1 0.29,-15.38l0,0q0,-7.61 -0.24,-13.94q-0.25,-6.32 -0.54,-10.91l0,0q-0.34,-5.37 -0.73,-9.67l0,0l9.42,0.39l0,19.63q1.12,-3.22 2,-5.42q0.88,-2.2 1.47,-3.56l0,0q0.68,-1.61 1.12,-2.54l0,0q1.27,-2.39 2.78,-4.27q1.52,-1.88 3.15,-3.18q1.64,-1.29 3.32,-1.98q1.69,-0.68 3.25,-0.68l0,0q1.56,0 2.93,0.68q1.37,0.69 2.42,2.15q1.05,1.47 1.8,3.74q0.76,2.27 1.15,5.44l0,0q0.78,5.28 1.37,11.53l0,0q0.54,5.37 0.98,12.54q0.43,7.18 0.53,15.43l0,0z"/>
        </g>
    </g>
</svg>